<mxfile host="app.diagrams.net" modified="2021-11-15T04:13:58.561Z" agent="5.0 (Windows NT 10.0; Win64; x64) AppleWebKit/537.36 (KHTML, like Gecko) Chrome/95.0.4638.69 Safari/537.36" etag="_YqTacm8MkjdM4qGtgFw" version="15.2.9" type="github">
  <diagram id="ZKK7Xh2nmRTc22aEWUPY" name="Page-1">
    <mxGraphModel dx="4299" dy="2969" grid="1" gridSize="10" guides="1" tooltips="1" connect="1" arrows="1" fold="1" page="1" pageScale="1" pageWidth="827" pageHeight="1169" math="0" shadow="0">
      <root>
        <mxCell id="0" />
        <mxCell id="1" parent="0" />
        <mxCell id="v2i8IFnvXQYw_XU6sGci-10" value="" style="rounded=0;whiteSpace=wrap;html=1;fillColor=#fff2cc;strokeColor=#d6b656;strokeWidth=2;fontSize=14;" parent="1" vertex="1">
          <mxGeometry x="-210" y="-940" width="2810" height="2610" as="geometry" />
        </mxCell>
        <mxCell id="v2i8IFnvXQYw_XU6sGci-6" value="AUTENTICACION BIOMETRICA - MODELO C4" style="text;strokeColor=none;fillColor=none;html=1;fontSize=33;fontStyle=1;verticalAlign=middle;align=center;strokeWidth=5;" parent="1" vertex="1">
          <mxGeometry x="-120" y="-890" width="759" height="40" as="geometry" />
        </mxCell>
        <mxCell id="v2i8IFnvXQYw_XU6sGci-7" value="" style="line;strokeWidth=4;fillColor=none;align=left;verticalAlign=middle;spacingTop=-1;spacingLeft=3;spacingRight=3;rotatable=0;labelPosition=right;points=[];portConstraint=eastwest;fontSize=14;" parent="1" vertex="1">
          <mxGeometry x="-106" y="-830" width="920" height="8" as="geometry" />
        </mxCell>
        <mxCell id="6v7BBSBn2mQemxLtHT0a-1" value="" style="rounded=0;whiteSpace=wrap;html=1;" vertex="1" parent="1">
          <mxGeometry x="-130" y="-740" width="2590" height="2310" as="geometry" />
        </mxCell>
        <mxCell id="6v7BBSBn2mQemxLtHT0a-2" value="Contexto del contenedores" style="text;strokeColor=none;fillColor=none;html=1;fontSize=35;fontStyle=1;verticalAlign=middle;align=center;" vertex="1" parent="1">
          <mxGeometry x="-75" y="-710" width="475" height="40" as="geometry" />
        </mxCell>
        <mxCell id="6v7BBSBn2mQemxLtHT0a-3" value="" style="rounded=0;whiteSpace=wrap;html=1;fillColor=none;strokeWidth=4;dashed=1;" vertex="1" parent="1">
          <mxGeometry x="187.5" y="-190" width="1935" height="1630" as="geometry" />
        </mxCell>
        <mxCell id="6v7BBSBn2mQemxLtHT0a-4" value="&lt;div style=&quot;font-size: 35px&quot;&gt;&lt;span style=&quot;font-size: 35px&quot;&gt;&lt;b style=&quot;font-size: 35px&quot;&gt;AUTENTICACION-BIOMETRICA&lt;/b&gt;&lt;/span&gt;&lt;/div&gt;&lt;div style=&quot;font-size: 35px&quot;&gt;&lt;font style=&quot;font-size: 35px&quot;&gt;&lt;b style=&quot;font-size: 35px&quot;&gt;Sistema web&lt;br style=&quot;font-size: 35px&quot;&gt;&lt;/b&gt;&lt;/font&gt;&lt;/div&gt;&lt;div style=&quot;font-size: 35px&quot;&gt;&lt;font style=&quot;font-size: 35px&quot;&gt;&lt;span style=&quot;font-size: 35px&quot;&gt;(Ionic. Angular)&lt;/span&gt;&lt;b style=&quot;font-size: 35px&quot;&gt;&lt;br style=&quot;font-size: 35px&quot;&gt;&lt;/b&gt;&lt;/font&gt;&lt;/div&gt;&lt;div style=&quot;font-size: 35px&quot;&gt;&lt;br style=&quot;font-size: 35px&quot;&gt;&lt;/div&gt;&lt;div style=&quot;font-size: 35px&quot;&gt;Aplicación híbrida (WEB, ANDROID)&lt;/div&gt;" style="rounded=0;whiteSpace=wrap;html=1;fillColor=#6a00ff;strokeColor=#3700CC;fontColor=#ffffff;fontSize=35;" vertex="1" parent="1">
          <mxGeometry x="267.5" y="-40" width="660" height="286" as="geometry" />
        </mxCell>
        <mxCell id="6v7BBSBn2mQemxLtHT0a-5" value="&lt;div style=&quot;font-size: 35px&quot;&gt;&lt;b&gt;piloto-autenticacion-biometrica&lt;/b&gt;&lt;/div&gt;&lt;div style=&quot;font-size: 35px&quot;&gt;&lt;font style=&quot;font-size: 35px&quot;&gt;&lt;span style=&quot;font-size: 35px&quot;&gt;(APIREST. SPRING BOOT. JAVA 11)&lt;/span&gt;&lt;b style=&quot;font-size: 35px&quot;&gt;&lt;br style=&quot;font-size: 35px&quot;&gt;&lt;/b&gt;&lt;/font&gt;&lt;/div&gt;&lt;div style=&quot;font-size: 35px&quot;&gt;&lt;br style=&quot;font-size: 35px&quot;&gt;&lt;/div&gt;&lt;div style=&quot;font-size: 35px&quot;&gt;Esta API provee los servicios necesarios para llevar acabo el proceso de registro de datos biometricos y la autenticación biometrica. Además, diferentes proceso del modulo administrativo.&lt;br style=&quot;font-size: 35px&quot;&gt;&lt;/div&gt;" style="rounded=0;whiteSpace=wrap;html=1;fillColor=#6a00ff;strokeColor=#3700CC;fontColor=#ffffff;fontSize=35;" vertex="1" parent="1">
          <mxGeometry x="824.12" y="490" width="666.75" height="410" as="geometry" />
        </mxCell>
        <mxCell id="6v7BBSBn2mQemxLtHT0a-6" value="Consume HTTP" style="endArrow=open;endSize=12;dashed=1;html=1;exitX=0.25;exitY=1;exitDx=0;exitDy=0;entryX=0;entryY=0.25;entryDx=0;entryDy=0;fontSize=35;fontStyle=1" edge="1" parent="1" source="6v7BBSBn2mQemxLtHT0a-4" target="6v7BBSBn2mQemxLtHT0a-5">
          <mxGeometry width="160" relative="1" as="geometry">
            <mxPoint x="562.5" y="65" as="sourcePoint" />
            <mxPoint x="722.5" y="65" as="targetPoint" />
            <Array as="points">
              <mxPoint x="432.5" y="600" />
            </Array>
          </mxGeometry>
        </mxCell>
        <mxCell id="6v7BBSBn2mQemxLtHT0a-7" value="&lt;div style=&quot;font-size: 35px;&quot;&gt;&lt;font style=&quot;font-size: 35px;&quot;&gt;&lt;b style=&quot;font-size: 35px;&quot;&gt;autenticacion-biometrica-apigateway&lt;/b&gt;&lt;/font&gt;&lt;/div&gt;&lt;div style=&quot;font-size: 35px;&quot;&gt;&lt;div style=&quot;font-size: 35px;&quot;&gt;&lt;font style=&quot;font-size: 35px;&quot;&gt;&lt;span style=&quot;font-size: 35px;&quot;&gt;(APIREST. API GATEWAY. AWS)&lt;/span&gt;&lt;b style=&quot;font-size: 35px;&quot;&gt;&lt;br style=&quot;font-size: 35px;&quot;&gt;&lt;/b&gt;&lt;/font&gt;&lt;/div&gt;&lt;/div&gt;&lt;div style=&quot;font-size: 35px;&quot;&gt;&lt;br style=&quot;font-size: 35px;&quot;&gt;&lt;/div&gt;&lt;div style=&quot;font-size: 35px;&quot;&gt;&lt;br style=&quot;font-size: 35px;&quot;&gt;&lt;/div&gt;" style="rounded=0;whiteSpace=wrap;html=1;fillColor=#6a00ff;strokeColor=#3700CC;fontColor=#ffffff;fontSize=35;" vertex="1" parent="1">
          <mxGeometry x="825.75" y="1080" width="655" height="240" as="geometry" />
        </mxCell>
        <mxCell id="6v7BBSBn2mQemxLtHT0a-8" value="Consume HTTPS" style="endArrow=open;endSize=12;dashed=1;html=1;entryX=0.5;entryY=0;entryDx=0;entryDy=0;exitX=0.5;exitY=1;exitDx=0;exitDy=0;fontSize=35;fontStyle=1" edge="1" parent="1" source="6v7BBSBn2mQemxLtHT0a-5" target="6v7BBSBn2mQemxLtHT0a-7">
          <mxGeometry x="-0.106" y="-11" width="160" relative="1" as="geometry">
            <mxPoint x="705.49" y="504.03999999999996" as="sourcePoint" />
            <mxPoint x="842.5" y="501.5" as="targetPoint" />
            <Array as="points" />
            <mxPoint as="offset" />
          </mxGeometry>
        </mxCell>
        <mxCell id="6v7BBSBn2mQemxLtHT0a-9" value="Leer/escribir" style="endArrow=open;endSize=12;dashed=1;html=1;exitX=0;exitY=0.5;exitDx=0;exitDy=0;fontSize=35;fontStyle=1;" edge="1" parent="1" source="6v7BBSBn2mQemxLtHT0a-5">
          <mxGeometry width="160" relative="1" as="geometry">
            <mxPoint x="957.5000000000002" y="375" as="sourcePoint" />
            <mxPoint x="422.5" y="903.9999999999991" as="targetPoint" />
            <Array as="points">
              <mxPoint x="428.5" y="695" />
            </Array>
          </mxGeometry>
        </mxCell>
        <mxCell id="6v7BBSBn2mQemxLtHT0a-10" value="df" style="strokeWidth=2;html=1;shape=mxgraph.flowchart.database;whiteSpace=wrap;fontColor=#FFFFFF;" vertex="1" parent="1">
          <mxGeometry x="227.5" y="910" width="480" height="230" as="geometry" />
        </mxCell>
        <mxCell id="6v7BBSBn2mQemxLtHT0a-11" value="&lt;div style=&quot;font-size: 37px&quot;&gt;&lt;font style=&quot;font-size: 37px&quot;&gt;MySQL&lt;/font&gt;&lt;/div&gt;&lt;div style=&quot;font-size: 37px&quot;&gt;autenticacion-biometrica&lt;/div&gt;" style="text;html=1;strokeColor=none;fillColor=none;align=center;verticalAlign=middle;whiteSpace=wrap;rounded=0;fontSize=37;" vertex="1" parent="1">
          <mxGeometry x="238.5" y="1000" width="429" height="120" as="geometry" />
        </mxCell>
        <mxCell id="6v7BBSBn2mQemxLtHT0a-12" value="Use" style="endArrow=open;endSize=12;dashed=1;html=1;exitX=0;exitY=0.75;exitDx=0;exitDy=0;entryX=0.25;entryY=0;entryDx=0;entryDy=0;exitPerimeter=0;fontSize=35;fontStyle=1" edge="1" parent="1" source="6v7BBSBn2mQemxLtHT0a-13" target="6v7BBSBn2mQemxLtHT0a-4">
          <mxGeometry width="160" relative="1" as="geometry">
            <mxPoint x="993.75" y="-319.99999999999955" as="sourcePoint" />
            <mxPoint x="933.75" y="-400" as="targetPoint" />
            <Array as="points">
              <mxPoint x="432.5" y="-410" />
            </Array>
          </mxGeometry>
        </mxCell>
        <object placeholders="1" c4Name="Personal diferente a equipo de seguridad del TDEA" c4Type="Person" c4Description="Esta es la representación de estudiantes, profesores, &#xa;personal administrativos y terceros&#xa; que deseen ingresar al TDEA" label="&lt;b style=&quot;font-size: 35px;&quot;&gt;%c4Name%&lt;/b&gt;&lt;div style=&quot;font-size: 35px;&quot;&gt;[%c4Type%]&lt;/div&gt;&lt;br style=&quot;font-size: 35px;&quot;&gt;&lt;div style=&quot;font-size: 35px;&quot;&gt;%c4Description%&lt;/div&gt;" id="6v7BBSBn2mQemxLtHT0a-13">
          <mxCell style="html=1;dashed=0;whitespace=wrap;fillColor=#08427b;strokeColor=none;fontColor=#ffffff;shape=mxgraph.c4.person;align=center;metaEdit=1;points=[[0.5,0,0],[1,0.5,0],[1,0.75,0],[0.75,1,0],[0.5,1,0],[0.25,1,0],[0,0.75,0],[0,0.5,0]];metaData={&quot;c4Type&quot;:{&quot;editable&quot;:false}};fontSize=35;" vertex="1" parent="1">
            <mxGeometry x="672.5" y="-680" width="930" height="360" as="geometry" />
          </mxCell>
        </object>
        <mxCell id="6v7BBSBn2mQemxLtHT0a-14" value="&lt;div style=&quot;font-size: 35px&quot;&gt;&lt;b&gt;AUTENTICACION-BIOMETRICA&lt;/b&gt;&lt;br&gt;&lt;/div&gt;&lt;div style=&quot;font-size: 35px&quot;&gt;&lt;font style=&quot;font-size: 35px&quot;&gt;&lt;b style=&quot;font-size: 35px&quot;&gt;APP&lt;/b&gt;&lt;/font&gt;&lt;/div&gt;&lt;div style=&quot;font-size: 35px&quot;&gt;&lt;font style=&quot;font-size: 35px&quot;&gt;&lt;span style=&quot;font-size: 35px&quot;&gt;(Ionic. Angular)&lt;/span&gt;&lt;b style=&quot;font-size: 35px&quot;&gt;&lt;br style=&quot;font-size: 35px&quot;&gt;&lt;/b&gt;&lt;/font&gt;&lt;/div&gt;&lt;div style=&quot;font-size: 35px&quot;&gt;&lt;br style=&quot;font-size: 35px&quot;&gt;&lt;/div&gt;&lt;div style=&quot;font-size: 35px&quot;&gt;Aplicación híbrida (WEB, ANDROID)&lt;/div&gt;" style="rounded=0;whiteSpace=wrap;html=1;fillColor=#6a00ff;strokeColor=#3700CC;fontColor=#ffffff;fontSize=35;" vertex="1" parent="1">
          <mxGeometry x="1402.5" y="-40" width="660" height="286" as="geometry" />
        </mxCell>
        <mxCell id="6v7BBSBn2mQemxLtHT0a-15" value="Use" style="endArrow=open;endSize=12;dashed=1;html=1;exitX=1;exitY=0.75;exitDx=0;exitDy=0;entryX=0.75;entryY=0;entryDx=0;entryDy=0;exitPerimeter=0;fontSize=35;fontStyle=1" edge="1" parent="1" source="6v7BBSBn2mQemxLtHT0a-13" target="6v7BBSBn2mQemxLtHT0a-14">
          <mxGeometry width="160" relative="1" as="geometry">
            <mxPoint x="682.5" y="-400" as="sourcePoint" />
            <mxPoint x="442.5" y="-59.999999999999545" as="targetPoint" />
            <Array as="points">
              <mxPoint x="1897.5" y="-410" />
            </Array>
          </mxGeometry>
        </mxCell>
        <mxCell id="6v7BBSBn2mQemxLtHT0a-16" value="Consume HTTP" style="endArrow=open;endSize=12;dashed=1;html=1;exitX=0.75;exitY=1;exitDx=0;exitDy=0;entryX=1;entryY=0.25;entryDx=0;entryDy=0;fontSize=35;fontStyle=1" edge="1" parent="1" source="6v7BBSBn2mQemxLtHT0a-14" target="6v7BBSBn2mQemxLtHT0a-5">
          <mxGeometry width="160" relative="1" as="geometry">
            <mxPoint x="442.49999999999955" y="226" as="sourcePoint" />
            <mxPoint x="839.1199999999999" y="422.5" as="targetPoint" />
            <Array as="points">
              <mxPoint x="1902.5" y="593" />
            </Array>
          </mxGeometry>
        </mxCell>
      </root>
    </mxGraphModel>
  </diagram>
</mxfile>
